<?xml version="1.0" encoding="UTF-8" standalone="no"?>
<svg width="60px" height="60px" viewBox="0 0 60 60" version="1.1" xmlns="http://www.w3.org/2000/svg" xmlns:xlink="http://www.w3.org/1999/xlink" xmlns:sketch="http://www.bohemiancoding.com/sketch/ns">
    <!-- Generator: Sketch 3.2.2 (9983) - http://www.bohemiancoding.com/sketch -->
    <title>Movieplay</title>
    <desc>Created with Sketch.</desc>
    <defs></defs>
    <g id="stroked" stroke="none" stroke-width="1" fill="none" fill-rule="evenodd" sketch:type="MSPage">
        <g id="Tech" sketch:type="MSLayerGroup" transform="translate(-718.000000, -1329.000000)" stroke="#ffffff" stroke-width="2">
            <g id="Movieplay" transform="translate(721.000000, 1338.000000)" sketch:type="MSShapeGroup">
                <rect id="Rectangle-549" x="1" y="0" width="52" height="30" rx="2"></rect>
                <rect id="Rectangle-550" x="0" y="29" width="54" height="10"></rect>
                <circle id="Oval-543" cx="27" cy="34" r="2"></circle>
                <path d="M22,38 L32,38 L35,45 L19,45 L22,38 Z" id="Rectangle-551" stroke-linecap="round" stroke-linejoin="round"></path>
                <g id="Group" transform="translate(15.000000, 5.000000)">
                    <rect id="Rectangle-576" x="4" y="1" width="16" height="18"></rect>
                    <path d="M23,1 L24,1" id="Line" stroke-linecap="square"></path>
                    <path d="M0,1 L1,1" id="Line" stroke-linecap="square"></path>
                    <path d="M23,4 L24,4" id="Line-176" stroke-linecap="square"></path>
                    <path d="M0,4 L1,4" id="Line-176" stroke-linecap="square"></path>
                    <path d="M23,7 L24,7" id="Line-177" stroke-linecap="square"></path>
                    <path d="M0,7 L1,7" id="Line-177" stroke-linecap="square"></path>
                    <path d="M23,10 L24,10" id="Line-178" stroke-linecap="square"></path>
                    <path d="M0,10 L1,10" id="Line-178" stroke-linecap="square"></path>
                    <path d="M23,13 L24,13" id="Line-179" stroke-linecap="square"></path>
                    <path d="M0,13 L1,13" id="Line-179" stroke-linecap="square"></path>
                    <path d="M23,16 L24,16" id="Line-180" stroke-linecap="square"></path>
                    <path d="M0,16 L1,16" id="Line-180" stroke-linecap="square"></path>
                    <path d="M23,19 L24,19" id="Line-181" stroke-linecap="square"></path>
                    <path d="M0,19 L1,19" id="Line-181" stroke-linecap="square"></path>
                </g>
            </g>
        </g>
    </g>
</svg>