<?xml version="1.0" encoding="iso-8859-1"?>
<!DOCTYPE svg PUBLIC "-//W3C//DTD SVG 1.1//EN" "http://www.w3.org/Graphics/SVG/1.1/DTD/svg11.dtd">
<svg 
 version="1.1" xmlns="http://www.w3.org/2000/svg" xmlns:xlink="http://www.w3.org/1999/xlink" x="0px" y="0px" width="512px"
	 height="512px" viewBox="0 0 512 512" enable-background="new 0 0 512 512" xml:space="preserve"
><g id="2069a460dcf28295e231f3111e046278"><g></g><path display="inline" d="M256,0.5C114.893,0.5,0.5,114.893,0.5,256S114.893,511.5,256,511.5S511.5,397.107,511.5,256
		S397.107,0.5,256,0.5z M256,468.917c-117.404,0-212.917-95.514-212.917-212.917c0-117.404,95.513-212.917,212.917-212.917
		c117.403,0,212.917,95.513,212.917,212.917C468.917,373.403,373.403,468.917,256,468.917z M405.042,319.875
		c0,39.689-78.488,106.458-149.042,106.458s-149.042-66.769-149.042-106.458S185.446,341.167,256,341.167
		S405.042,280.186,405.042,319.875z M107.557,237.123c0,0-2.262-2.963-0.599-13.077c4.753-28.902,23.704-53.042,52.923-53.212
		c29.22,0.17,48.17,24.311,52.923,53.212c1.664,10.113-0.599,13.077-0.599,13.077c-5.529,10.323-13.977,10.03-18.778-0.651
		c0,0-10.282-22.847-33.547-23.053c-23.265,0.206-33.547,23.053-33.547,23.053C121.534,247.153,113.086,247.446,107.557,237.123z
		 M405.042,224.046c1.663,10.113-0.6,13.077-0.6,13.077c-5.53,10.323-13.977,10.03-18.779-0.651c0,0-10.28-22.847-33.543-23.053
		c-23.267,0.206-33.551,23.053-33.551,23.053c-4.799,10.681-13.249,10.974-18.776,0.651c0,0-2.262-2.963-0.599-13.077
		c4.754-28.902,23.704-53.042,52.926-53.212C381.338,171.004,400.288,195.144,405.042,224.046z"></path></g></svg>